<svg width="250" height="250" viewBox="0 0 250 250" fill="none" xmlns="http://www.w3.org/2000/svg">
<path d="M138.052 62.2917L125 140.625L111.948 62.2917C111.635 60.3976 111.738 58.458 112.25 56.6077C112.762 54.7574 113.67 53.0406 114.912 51.5766C116.154 50.1126 117.699 48.9364 119.441 48.1297C121.184 47.323 123.08 46.9052 125 46.9052C126.92 46.9052 128.817 47.323 130.559 48.1297C132.301 48.9364 133.847 50.1126 135.089 51.5766C136.33 53.0406 137.239 54.7574 137.751 56.6077C138.262 58.458 138.365 60.3976 138.052 62.2917Z" fill="white" stroke="white" stroke-width="3" stroke-linecap="round" stroke-linejoin="round"/>
<path d="M125 208.333C130.753 208.333 135.417 203.67 135.417 197.917C135.417 192.164 130.753 187.5 125 187.5C119.247 187.5 114.583 192.164 114.583 197.917C114.583 203.67 119.247 208.333 125 208.333Z" fill="white" stroke="white" stroke-width="2"/>
</svg>
