<svg width="250" height="250" viewBox="0 0 250 250" fill="none" xmlns="http://www.w3.org/2000/svg">
<g clip-path="url(#clip0_334_18)">
<path fill-rule="evenodd" clip-rule="evenodd" d="M117.078 0.234373C116.281 0.328123 113.562 0.609373 111.047 0.859373C81.7811 3.78125 52.2967 18.875 32.3592 41.1562C10.3124 65.7969 -0.890756 96.375 0.140494 128.953C1.93737 185.219 40.6092 232.859 95.4686 246.422C127.64 254.375 163.015 248.703 191.047 231.109C219.015 213.531 238.594 186.453 246.422 154.484C249.109 143.531 249.734 137.953 249.734 125C249.734 112.047 249.109 106.469 246.422 95.5156C234.047 44.9688 192.422 7.78125 140.625 0.999999C136.187 0.421873 120.047 -0.0937515 117.078 0.234373ZM138.328 24.4219C155.734 26.6719 172.031 33.375 186.625 44.2812C191.765 48.125 201.875 58.2344 205.719 63.375C214.484 75.1094 220.969 88.9062 223.906 102.109C227.25 117.187 227.25 132.812 223.906 147.891C217.437 176.969 196.953 202.781 169.797 216.062C159.984 220.859 149.859 224 138.75 225.687C132.125 226.703 117.875 226.703 111.25 225.687C80.8124 221.062 55.1249 204.453 38.953 178.922C35.6092 173.656 31.2342 164.469 29.0467 158.109C25.2811 147.219 23.6561 137.203 23.6561 125C23.6561 108.766 26.7967 94.9219 33.7499 80.625C39.0624 69.7187 44.4686 62.1875 53.328 53.3281C62.1874 44.4687 69.7186 39.0625 80.6249 33.75C98.6405 24.9844 118.234 21.8281 138.328 24.4219ZM120.406 67.0313C116.906 68.1719 114.922 70.1719 113.953 73.5156C113.39 75.4219 113.328 79.7813 113.422 106.5C113.547 137.281 113.547 137.297 114.453 139C115.594 141.141 117.781 143.078 119.859 143.813C121.922 144.531 128.078 144.531 130.141 143.813C132.219 143.078 134.406 141.141 135.547 139C136.453 137.297 136.453 137.281 136.578 106.5C136.703 72.875 136.703 72.8438 134.312 70.0156C132.375 67.7031 130.297 66.9375 125.625 66.8125C123.328 66.75 120.984 66.8438 120.406 67.0313ZM121.656 164.531C118.703 165.5 115.781 168.016 114.359 170.812C113.265 173 113.078 176.953 113.969 179.609C115.437 184.062 120.265 187.5 125 187.5C129.734 187.5 134.562 184.062 136.031 179.609C136.922 176.953 136.734 173 135.64 170.812C134.625 168.812 132.187 166.344 130.203 165.312C128.39 164.375 123.5 163.922 121.656 164.531Z" fill="black"/>
</g>
<defs>
<clipPath id="clip0_334_18">
<rect width="250" height="250" fill="white"/>
</clipPath>
</defs>
</svg>
