<svg width="228" height="228" viewBox="0 0 228 228" fill="none" xmlns="http://www.w3.org/2000/svg">
<g clip-path="url(#clip0_332_4)">
<path d="M224.464 167.01C219.831 162.655 215.201 158.565 210.606 154.718C189.218 109.148 180.476 75.143 176.922 54.367C174.676 41.232 174.171 31.655 174.161 25.768C177.751 21.329 181.439 17.042 185.206 13.015C188.121 9.89401 187.954 4.99801 184.834 2.08201C181.713 -0.834993 176.818 -0.667993 173.901 2.45301C169.813 6.82801 165.823 11.462 161.961 16.239C146.761 24.103 130.64 28.099 113.96 28.099C92.9201 28.099 76.0181 21.674 67.9091 17.902C63.8251 12.812 59.5991 7.87701 55.2601 3.23101C52.3441 0.110007 47.4491 -0.0559933 44.3271 2.86001C41.2071 5.77701 41.0401 10.672 43.9581 13.792C47.5261 17.611 51.0271 21.666 54.4391 25.858C52.0111 54.77 42.7091 73.296 35.0471 83.953C29.3681 91.849 23.7871 96.636 20.4891 99.068C15.7891 99.866 11.1071 100.818 6.49507 101.963C2.34907 102.99 -0.179929 107.185 0.849071 111.331C1.72107 114.852 4.87707 117.206 8.34907 117.206C8.96607 117.206 9.59107 117.133 10.2171 116.977C14.4461 115.929 18.7591 115.051 23.1041 114.319C37.8461 125.811 49.0241 141.137 56.3741 159.99C60.2171 169.844 62.0671 178.439 62.9311 183.665C58.0411 195.154 53.9171 206.769 51.3601 217.694C50.3861 221.854 52.9681 226.015 57.1291 226.988C57.7221 227.127 58.3141 227.193 58.8991 227.193C62.4101 227.193 65.5871 224.786 66.4231 221.219C68.8621 210.797 72.9301 199.544 77.7771 188.349C107.342 167.595 141.68 163.075 165.957 163.075C183.778 163.075 197.935 165.474 204.033 166.707C207.768 169.889 211.523 173.24 215.278 176.772C216.573 177.99 218.224 178.593 219.87 178.593C221.656 178.593 223.436 177.885 224.756 176.482C227.29 173.788 227.16 169.547 224.464 167.01ZM193.2 141.141C183.457 134.068 174.094 128.11 165.47 123.132C147.639 93.782 145.065 75.86 145.341 67.141C150.989 57.941 157.427 48.1 164.406 38.511C166.143 58.583 172.521 92.867 193.2 141.141ZM103.091 69.875C106.625 70.68 110.616 71.22 114.981 71.22C118.484 71.22 121.973 70.872 125.435 70.19C121.005 77.805 117.264 84.638 114.374 90.098C111.406 84.507 107.59 77.569 103.091 69.875ZM100.404 96.848C100.08 96.925 99.7621 97.02 99.4571 97.143C94.4161 96.671 88.4201 96.219 81.7321 95.916C84.9811 91.685 88.1851 86.184 90.5501 79.183C94.4241 85.847 97.7471 91.875 100.404 96.848ZM101.244 112.897C98.4501 117.247 94.9961 122.762 91.2001 129.11C89.4071 123.617 86.5501 117.405 82.0101 111.475C89.5051 111.831 96.0821 112.374 101.244 112.897ZM117.197 116.768L117.971 115.424C123.214 117.362 129.44 119.883 136.406 123.11C137.642 123.682 138.918 124.286 140.23 124.92C131.152 125.023 120.049 126.136 108.983 129.718C112.271 124.383 115.111 119.955 117.197 116.768ZM141.608 110.743C135.373 107.867 129.711 105.528 124.766 103.644L124.939 103.344C127.518 98.33 131.482 90.85 136.524 82.029C138.569 91.734 142.601 102.449 148.56 114.071C146.133 112.87 143.807 111.759 141.608 110.743ZM113.96 38.413C126.134 38.413 138.022 36.482 149.515 32.672C143.681 40.848 138.274 49.085 133.414 56.914C127.345 59.563 121.165 60.906 114.979 60.906C105.507 60.906 98.1661 57.732 94.5661 55.799C89.9941 48.504 84.9601 40.89 79.5641 33.333C88.8501 36.103 100.596 38.413 113.96 38.413ZM42.9791 90.582C50.5771 80.195 59.6001 63.094 63.4561 37.512C70.6231 47.23 77.2421 57.263 83.0591 66.677C80.4261 82.511 72.9421 91.337 68.0431 95.561C58.6331 95.499 48.4251 95.824 37.9931 96.797C39.6201 94.946 41.2961 92.883 42.9791 90.582ZM66.1221 156.603C61.1911 143.849 52.3171 127.039 36.7841 112.485C47.3911 111.392 57.8791 111.03 67.5371 111.088C79.6561 121.542 82.8141 135.523 83.6381 142.151C79.1101 150.201 74.4161 159.018 69.9931 168.166C68.9791 164.604 67.7111 160.712 66.1221 156.603ZM165.956 152.765C143.828 152.765 113.798 156.345 85.6701 171.416C90.3711 161.959 95.3301 152.891 100 144.784C113.871 137.024 129.838 135.223 141.645 135.223C151.757 135.223 159.782 136.526 162.749 137.082C170.651 141.808 179.132 147.371 187.908 153.884C181.59 153.238 174.166 152.765 165.956 152.765Z" fill="black"/>
</g>
<defs>
<clipPath id="clip0_332_4">
<rect width="227.195" height="227.194" fill="white"/>
</clipPath>
</defs>
</svg>
