<svg width="200" height="200" viewBox="0 0 200 200" fill="none" xmlns="http://www.w3.org/2000/svg">
<g clip-path="url(#clip0_334_38)">
<path d="M59.2319 128.719C56.014 128.719 53.4155 131.324 53.4155 134.539C53.4155 137.751 56.0136 140.352 59.2319 140.352C62.444 140.352 65.0483 137.751 65.0483 134.539C65.0483 131.323 62.4437 128.719 59.2319 128.719Z" fill="white"/>
<path d="M89.5537 135.462C86.342 135.462 83.7373 138.064 83.7373 141.275C83.7373 144.49 86.342 147.095 89.5537 147.095C92.7658 147.095 95.3705 144.49 95.3705 141.275C95.3705 138.063 92.7658 135.462 89.5537 135.462Z" fill="white"/>
<path d="M171.272 87.559C171.272 87.559 171.272 87.559 171.272 87.5621C171.279 87.5621 171.279 87.5621 171.279 87.5621L171.272 87.559Z" fill="white"/>
<path d="M171.21 87.5246L171.272 87.559C171.272 87.559 171.272 87.5558 171.266 87.5558L171.21 87.5246Z" fill="white"/>
<path d="M178.203 65.1352C178.203 65.1352 178.203 65.1352 178.203 65.1383H178.209L178.203 65.1352Z" fill="white"/>
<path d="M178.141 65.0977L178.203 65.1352C178.203 65.1352 178.203 65.132 178.197 65.132L178.141 65.0977Z" fill="white"/>
<path d="M190.274 94.2742C195.296 94.8281 199.641 92.7996 199.979 89.7316C200.317 86.6637 196.529 83.7273 191.514 83.1699C190.074 83.0102 188.71 83.0824 187.457 83.3105L182.054 71.227L181.985 71.1113C181.785 70.7762 181.478 69.8621 181.046 68.7789C180.821 68.2344 180.545 67.6301 180.119 66.9914C179.7 66.3594 179.099 65.6609 178.203 65.1383C176.995 64.4277 175.636 64.0742 174.284 64.0742C172.988 64.0742 171.686 64.3996 170.521 65.0508L170.346 65.1445L158.507 73.775C156.816 59.0648 147.75 46.8844 131.027 42.8051C112.069 38.1812 94.0186 43.8691 80.4569 55.2551L78.3409 31.9484L78.0967 31.4352C76.926 29.0027 74.5842 27.5094 72.0112 27.1902C71.6792 27.1496 71.3413 27.1309 71.0092 27.1309C68.7741 27.1371 66.6014 28.0133 65.0549 29.7324L64.9733 29.823L59.1819 37.3457C57.942 37.0418 56.5334 36.8918 55.0311 36.9793C50.3916 37.2551 46.7538 39.5121 46.8983 42.0164C47.0483 44.5305 50.9241 46.3395 55.5631 46.0707C58.1116 45.9203 60.3342 45.1598 61.8178 44.1016L61.9745 44.227L62.419 43.6539C62.8198 43.2879 63.1077 42.8871 63.3268 42.477L69.8569 33.9902C70.0573 33.7648 70.5018 33.5363 71.0088 33.5426L71.2342 33.5551C71.6475 33.602 71.9042 33.7707 72.0858 33.9402L74.5338 60.9094C70.8838 64.841 67.6971 69.2238 65.067 73.9414L52.3573 50.8758L52.3323 50.8883C51.2178 48.5281 49.0139 46.8594 46.4159 46.4992C46.0651 46.4523 45.7143 46.4273 45.3577 46.4273C43.0034 46.4273 40.762 47.5008 39.2846 49.373L39.2092 49.4637L33.5178 57.816C31.9338 57.118 30.0116 56.6988 27.9143 56.6988C22.5987 56.6988 18.2971 59.3285 18.2971 62.5746C18.2971 65.8207 22.5987 68.4504 27.9143 68.4504C32.6788 68.4504 36.6045 66.3281 37.3682 63.548L44.3366 53.3301C44.5936 53.0168 44.9631 52.8387 45.3573 52.8387L45.5385 52.8512C46.0143 52.9168 46.4088 53.2238 46.5967 53.6621L46.6596 53.8184L61.642 81.0195C60.2647 84.366 59.1624 87.8312 58.3549 91.3781L40.3483 72.8832L40.3358 72.8957C38.8643 71.2992 36.8108 70.3816 34.651 70.3789L34.1499 70.3977C34.1436 70.3977 34.1436 70.3977 34.1374 70.3977L34.0999 70.4008V70.407C31.7268 70.5695 29.5545 71.8125 28.2209 73.791L14.7975 93.6418C13.1881 93.075 11.26 92.7996 9.19399 92.9434C3.89712 93.3098 -0.216554 96.2305 0.00883695 99.4707C0.234228 102.711 4.71079 105.034 10.0139 104.664C12.4182 104.498 14.553 103.787 16.1749 102.776L16.2999 102.864L16.4877 102.592C18.0721 101.521 19.0424 100.134 19.1487 98.6535L33.5303 77.3785C33.7686 77.034 34.144 76.8211 34.551 76.7961L34.576 76.793H34.5948L34.651 76.7902C35.0264 76.7902 35.3897 76.9559 35.6463 77.241L35.6963 77.3004L57.0713 99.2547C56.8459 101.606 56.7522 103.979 56.8022 106.367L48.4561 99.1141L48.4499 99.1234C46.3963 97.2141 43.767 96.2398 41.1561 96.2434C38.4198 96.2402 35.6584 97.298 33.5803 99.3832L33.4108 99.552L16.8506 122.032C15.517 121.606 14.0272 121.343 12.4178 121.343C7.1022 121.343 2.80102 123.973 2.80102 127.219C2.80102 130.466 7.1022 133.095 12.4178 133.095C17.7272 133.095 22.0346 130.465 22.0346 127.219C22.0346 126.825 21.9659 126.439 21.8409 126.067L38.1944 103.859C39.0334 103.061 40.0792 102.657 41.1561 102.654C42.2389 102.657 43.2909 103.045 44.1358 103.85L44.1987 103.909L56.7518 114.819C46.9346 116.065 39.3588 124.398 39.3588 134.551C39.3588 145.514 48.237 154.427 59.2311 154.427C63.9772 154.427 68.335 152.758 71.7342 149.969C74.9088 156.605 81.6702 161.157 89.5592 161.157C100.422 161.157 109.256 152.401 109.413 141.573L109.438 141.613C111.035 141 112.581 140.339 114.096 139.657L142.333 134.401L142.571 134.313C143.065 134.138 143.554 134.057 144.036 134.057C145.72 134.06 147.304 135.068 147.993 136.705L154.198 164.786C153.997 165.196 153.853 165.625 153.809 166.079C153.515 169.309 157.56 172.321 162.856 172.803C168.147 173.288 172.674 171.06 172.968 167.826C173.262 164.595 169.218 161.584 163.921 161.101C162.531 160.973 161.204 161.042 159.983 161.258L154.123 134.734L154.035 134.508C152.394 130.263 148.344 127.643 144.036 127.646C142.99 127.646 141.932 127.83 140.899 128.15V128.147L130.38 130.103C132.447 128.563 134.438 126.973 136.278 125.301L157.722 113.603L158.367 113.437L158.899 113.546C159.281 113.715 159.563 114.047 159.663 114.451L166.187 140.356C166.069 140.635 165.949 140.916 165.899 141.22C165.386 144.423 169.211 147.704 174.458 148.549C179.705 149.394 184.369 147.481 184.889 144.276C185.402 141.07 181.571 137.793 176.33 136.947C174.777 136.697 173.294 136.716 171.935 136.91L165.881 112.886C165.298 110.56 163.671 108.638 161.473 107.677C160.484 107.242 159.419 107.026 158.367 107.026C157.084 107.026 155.807 107.345 154.655 107.974L148.231 111.477C150.065 108.732 151.656 105.927 153.015 103.087L166.764 93.0637L167.352 92.9105L167.815 93.0355C167.903 93.1828 168.016 93.3863 168.135 93.6461C168.473 94.366 168.855 95.3898 169.212 96.4164C169.575 97.4496 169.906 98.4797 170.232 99.3559L170.226 99.3465L176.562 116.539C176.869 119.354 180.231 122.149 184.789 123.126C189.98 124.24 194.744 122.575 195.427 119.401C196.103 116.226 192.453 112.752 187.256 111.637C185.215 111.196 183.242 111.202 181.558 111.546L176.243 97.1305V97.1211C175.855 96.0973 175.291 94.2754 174.628 92.5535C174.289 91.6832 173.926 90.8285 173.475 90.0148C173.244 89.6047 172.993 89.2039 172.667 88.7937C172.336 88.393 171.935 87.9582 171.271 87.5633C170.063 86.8527 168.704 86.4957 167.352 86.4992C166.056 86.4992 164.753 86.8246 163.589 87.4758L163.414 87.5695L157.029 92.2266C157.974 88.6297 158.525 85.0547 158.719 81.5547L173.696 70.6387L174.284 70.4855L174.829 70.6328C174.935 70.7984 175.123 71.193 175.336 71.7754C175.567 72.3797 175.837 73.1309 176.256 73.9637L176.25 73.9668L182.041 86.9023C181.941 87.1652 181.841 87.4281 181.81 87.7098C181.472 90.777 185.26 93.7137 190.274 94.2742ZM76.9506 125.62L77.1635 125.726C77.126 125.751 77.0881 125.77 77.0573 125.798C77.0256 125.736 76.9815 125.682 76.9506 125.62ZM68.7549 144.071C66.3198 146.506 62.951 148.015 59.2319 148.015C55.5131 148.015 52.1444 146.506 49.7088 144.071C47.2737 141.604 45.7706 138.27 45.7706 134.551C45.7706 130.801 47.2733 127.467 49.7088 124.996C52.1444 122.561 55.5127 121.055 59.2319 121.055C62.951 121.055 66.3194 122.561 68.7549 124.996C70.4831 126.762 71.7354 128.941 72.3112 131.408C70.6459 134.326 69.6815 137.659 69.6815 141.282C69.6815 141.826 69.7127 142.371 69.744 142.919C69.4561 143.336 69.1057 143.72 68.7549 144.071ZM99.0768 150.804C96.6413 153.24 93.2729 154.746 89.5604 154.746C85.8413 154.746 82.4729 153.24 80.0374 150.804C78.303 149.073 77.0256 146.86 76.4811 144.393C76.2245 143.398 76.0928 142.339 76.0928 141.281C76.0928 138.814 76.7377 136.538 77.9209 134.551C78.2088 133.975 78.5909 133.427 79.0416 132.917C79.3299 132.5 79.6866 132.115 80.0374 131.761C82.4725 129.295 85.8413 127.817 89.5604 127.817C93.2733 127.817 96.6413 129.295 99.0768 131.761C101.513 134.197 103.021 137.531 103.021 141.281C103.021 145.001 101.512 148.366 99.0768 150.804Z" fill="white"/>
</g>
<defs>
<clipPath id="clip0_334_38">
<rect width="200" height="200" fill="white"/>
</clipPath>
</defs>
</svg>
