<svg viewBox="0 0 21 21" xmlns="http://www.w3.org/2000/svg" fill="#000000"><g id="SVGRepo_bgCarrier" stroke-width="0"></g><g id="SVGRepo_tracerCarrier" stroke-linecap="round" stroke-linejoin="round"></g><g id="SVGRepo_iconCarrier"> <g fill="none" fill-rule="evenodd" stroke="#000000" stroke-linecap="round" stroke-linejoin="round" transform="translate(2 3)"> <path d="m5.5.5h6c1.1045695 0 2 .8954305 2 2v10c0 1.1045695-.8954305 2-2 2h-6c-1.1045695 0-2-.8954305-2-2v-10c0-1.1045695.8954305-2 2-2zm8 2.5h1c1.1045695 0 2 .8954305 2 2v5c0 1.1045695-.8954305 2-2 2h-1z"></path> <path d="m.5 3h1c1.1045695 0 2 .8954305 2 2v5c0 1.1045695-.8954305 2-2 2h-1z" transform="matrix(-1 0 0 1 4 0)"></path> </g> </g></svg>